{
	"asset":{
		"generator":"Khronos glTF Blender I/O v4.0.44",
		"version":"2.0"
	},
	"scene":0,
	"scenes":[
		{
			"name":"Scene",
			"nodes":[
				0
			]
		}
	],
	"nodes":[
		{
			"mesh":0,
			"name":"eye.003",
			"rotation":[
				0.7060165405273438,
				0.03925064206123352,
				-0.03925064578652382,
				0.7060166001319885
			],
			"scale":[
				402.7447204589844,
				402.7447204589844,
				402.7446594238281
			],
			"translation":[
				-0.3414399027824402,
				5.299074172973633,
				0.49704623222351074
			]
		}
	],
	"materials":[
		{
			"alphaMode":"BLEND",
			"doubleSided":true,
			"name":"eye.011",
			"pbrMetallicRoughness":{
				"baseColorFactor":[
					0.800000011920929,
					0.800000011920929,
					0.800000011920929,
					1
				],
				"metallicFactor":0,
				"roughnessFactor":0
			}
		},
		{
			"doubleSided":true,
			"name":"iris.011",
			"pbrMetallicRoughness":{}
		}
	],
	"meshes":[
		{
			"name":"Sphere.014",
			"primitives":[
				{
					"attributes":{
						"POSITION":0,
						"NORMAL":1,
						"TEXCOORD_0":2
					},
					"indices":3,
					"material":0
				},
				{
					"attributes":{
						"POSITION":4,
						"NORMAL":5,
						"TEXCOORD_0":6
					},
					"indices":7,
					"material":1
				}
			]
		}
	],
	"accessors":[
		{
			"bufferView":0,
			"componentType":5126,
			"count":200,
			"max":[
				0.012084351852536201,
				0.012468676082789898,
				0.012042678892612457
			],
			"min":[
				-0.012084344401955605,
				-0.012030203826725483,
				-0.012068890035152435
			],
			"type":"VEC3"
		},
		{
			"bufferView":1,
			"componentType":5126,
			"count":200,
			"type":"VEC3"
		},
		{
			"bufferView":2,
			"componentType":5126,
			"count":200,
			"type":"VEC2"
		},
		{
			"bufferView":3,
			"componentType":5123,
			"count":1068,
			"type":"SCALAR"
		},
		{
			"bufferView":4,
			"componentType":5126,
			"count":56,
			"max":[
				0.007777497172355652,
				0.009252137504518032,
				0.007837200537323952
			],
			"min":[
				-0.007777491118758917,
				0.006108484230935574,
				-0.007777456659823656
			],
			"type":"VEC3"
		},
		{
			"bufferView":5,
			"componentType":5126,
			"count":56,
			"type":"VEC3"
		},
		{
			"bufferView":6,
			"componentType":5126,
			"count":56,
			"type":"VEC2"
		},
		{
			"bufferView":7,
			"componentType":5123,
			"count":198,
			"type":"SCALAR"
		}
	],
	"bufferViews":[
		{
			"buffer":0,
			"byteLength":2400,
			"byteOffset":0,
			"target":34962
		},
		{
			"buffer":0,
			"byteLength":2400,
			"byteOffset":2400,
			"target":34962
		},
		{
			"buffer":0,
			"byteLength":1600,
			"byteOffset":4800,
			"target":34962
		},
		{
			"buffer":0,
			"byteLength":2136,
			"byteOffset":6400,
			"target":34963
		},
		{
			"buffer":0,
			"byteLength":672,
			"byteOffset":8536,
			"target":34962
		},
		{
			"buffer":0,
			"byteLength":672,
			"byteOffset":9208,
			"target":34962
		},
		{
			"buffer":0,
			"byteLength":448,
			"byteOffset":9880,
			"target":34962
		},
		{
			"buffer":0,
			"byteLength":396,
			"byteOffset":10328,
			"target":34963
		}
	],
	"buffers":[
		{
			"byteLength":10724,
			"uri":"AvatarOhneSchuhe.bin"
		}
	]
}
