{
	"asset":{
		"generator":"Khronos glTF Blender I/O v4.0.44",
		"version":"2.0"
	},
	"scene":0,
	"scenes":[
		{
			"name":"Scene",
			"nodes":[
				0
			]
		}
	],
	"nodes":[
		{
			"mesh":0,
			"name":"eye.004",
			"rotation":[
				-0.7052110433578491,
				-0.05174388736486435,
				-0.05174388736486435,
				0.7052109837532043
			],
			"scale":[
				-18.552207946777344,
				-18.552207946777344,
				-18.552202224731445
			],
			"translation":[
				0.304240882396698,
				5.299074172973633,
				0.6685299873352051
			]
		}
	],
	"materials":[
		{
			"alphaMode":"BLEND",
			"doubleSided":true,
			"name":"eye.014",
			"pbrMetallicRoughness":{
				"baseColorTexture":{
					"index":0
				},
				"metallicFactor":0,
				"roughnessFactor":0
			}
		},
		{
			"alphaMode":"BLEND",
			"doubleSided":true,
			"name":"eye.010",
			"pbrMetallicRoughness":{
				"baseColorTexture":{
					"index":1
				},
				"metallicFactor":0,
				"roughnessFactor":0
			}
		}
	],
	"meshes":[
		{
			"name":"Sphere.015",
			"primitives":[
				{
					"attributes":{
						"POSITION":0,
						"NORMAL":1,
						"TEXCOORD_0":2
					},
					"indices":3,
					"material":0
				},
				{
					"attributes":{
						"POSITION":4,
						"NORMAL":5,
						"TEXCOORD_0":6
					},
					"indices":7,
					"material":1
				}
			]
		}
	],
	"textures":[
		{
			"sampler":0,
			"source":0
		},
		{
			"sampler":0,
			"source":0
		}
	],
	"images":[
		{
			"mimeType":"image/png",
			"name":"AugeImg-AugeAlpha",
			"uri":"AugeImg-AugeAlpha.png"
		}
	],
	"accessors":[
		{
			"bufferView":0,
			"componentType":5126,
			"count":233,
			"max":[
				0.012084351852536201,
				0.012468676082789898,
				0.012042678892612457
			],
			"min":[
				-0.012084344401955605,
				-0.012030203826725483,
				-0.012068890035152435
			],
			"type":"VEC3"
		},
		{
			"bufferView":1,
			"componentType":5126,
			"count":233,
			"type":"VEC3"
		},
		{
			"bufferView":2,
			"componentType":5126,
			"count":233,
			"type":"VEC2"
		},
		{
			"bufferView":3,
			"componentType":5123,
			"count":1068,
			"type":"SCALAR"
		},
		{
			"bufferView":4,
			"componentType":5126,
			"count":50,
			"max":[
				0.007810918614268303,
				0.009025613777339458,
				0.007837200537323952
			],
			"min":[
				-0.007744069676846266,
				0.005881960503757,
				-0.007777456659823656
			],
			"type":"VEC3"
		},
		{
			"bufferView":5,
			"componentType":5126,
			"count":50,
			"type":"VEC3"
		},
		{
			"bufferView":6,
			"componentType":5126,
			"count":50,
			"type":"VEC2"
		},
		{
			"bufferView":7,
			"componentType":5123,
			"count":198,
			"type":"SCALAR"
		}
	],
	"bufferViews":[
		{
			"buffer":0,
			"byteLength":2796,
			"byteOffset":0,
			"target":34962
		},
		{
			"buffer":0,
			"byteLength":2796,
			"byteOffset":2796,
			"target":34962
		},
		{
			"buffer":0,
			"byteLength":1864,
			"byteOffset":5592,
			"target":34962
		},
		{
			"buffer":0,
			"byteLength":2136,
			"byteOffset":7456,
			"target":34963
		},
		{
			"buffer":0,
			"byteLength":600,
			"byteOffset":9592,
			"target":34962
		},
		{
			"buffer":0,
			"byteLength":600,
			"byteOffset":10192,
			"target":34962
		},
		{
			"buffer":0,
			"byteLength":400,
			"byteOffset":10792,
			"target":34962
		},
		{
			"buffer":0,
			"byteLength":396,
			"byteOffset":11192,
			"target":34963
		}
	],
	"samplers":[
		{
			"magFilter":9729,
			"minFilter":9987
		}
	],
	"buffers":[
		{
			"byteLength":11588,
			"uri":"Avatar.bin"
		}
	]
}
