{
	"asset":{
		"generator":"Khronos glTF Blender I/O v4.0.44",
		"version":"2.0"
	},
	"extensionsUsed":[
		"KHR_materials_specular",
		"KHR_materials_ior"
	],
	"scene":0,
	"scenes":[
		{
			"name":"Scene",
			"nodes":[
				0
			]
		}
	],
	"nodes":[
		{
			"mesh":0,
			"name":"Kaputt Ende.004",
			"rotation":[
				0.6909394860267639,
				0,
				0,
				0.7229126691818237
			],
			"scale":[
				0.027331585064530373,
				0.027331583201885223,
				0.027331577613949776
			],
			"translation":[
				0,
				-0.17654608190059662,
				0
			]
		}
	],
	"materials":[
		{
			"doubleSided":true,
			"extensions":{
				"KHR_materials_specular":{
					"specularFactor":0
				},
				"KHR_materials_ior":{
					"ior":1.4500000476837158
				}
			},
			"name":"GelenkeGesicht.008",
			"pbrMetallicRoughness":{
				"baseColorFactor":[
					0.024633023887872696,
					0.024633023887872696,
					0.024633023887872696,
					1
				],
				"roughnessFactor":0.261904776096344
			}
		},
		{
			"doubleSided":true,
			"extensions":{
				"KHR_materials_specular":{
					"specularFactor":0
				},
				"KHR_materials_ior":{
					"ior":1.4500000476837158
				}
			},
			"name":"Haende.010",
			"pbrMetallicRoughness":{
				"baseColorFactor":[
					0.0048615410923957825,
					0.8013342618942261,
					0,
					1
				],
				"metallicFactor":0.3333333432674408
			}
		},
		{
			"doubleSided":true,
			"extensions":{
				"KHR_materials_specular":{
					"specularFactor":0
				},
				"KHR_materials_ior":{
					"ior":1.4500000476837158
				}
			},
			"name":"Augen.008",
			"pbrMetallicRoughness":{
				"baseColorFactor":[
					0.13140210509300232,
					0.091402567923069,
					0.8002749681472778,
					1
				],
				"metallicFactor":0
			}
		},
		{
			"doubleSided":true,
			"extensions":{
				"KHR_materials_specular":{
					"specularFactor":0
				},
				"KHR_materials_ior":{
					"ior":1.4500000476837158
				}
			},
			"name":"GelenkeGesicht.011",
			"pbrMetallicRoughness":{
				"baseColorFactor":[
					0.024633023887872696,
					0.024633023887872696,
					0.024633023887872696,
					1
				],
				"roughnessFactor":0.261904776096344
			}
		},
		{
			"alphaMode":"BLEND",
			"doubleSided":true,
			"name":"Damaged Metal.004",
			"normalTexture":{
				"index":0
			},
			"pbrMetallicRoughness":{
				"baseColorTexture":{
					"index":1
				},
				"metallicRoughnessTexture":{
					"index":2
				}
			}
		}
	],
	"meshes":[
		{
			"name":"RobMesh.002",
			"primitives":[
				{
					"attributes":{
						"POSITION":0,
						"NORMAL":1,
						"TEXCOORD_0":2
					},
					"indices":3,
					"material":0
				},
				{
					"attributes":{
						"POSITION":4,
						"NORMAL":5,
						"TEXCOORD_0":6
					},
					"indices":7,
					"material":1
				},
				{
					"attributes":{
						"POSITION":8,
						"NORMAL":9,
						"TEXCOORD_0":10
					},
					"indices":11,
					"material":2
				},
				{
					"attributes":{
						"POSITION":12,
						"NORMAL":13,
						"TEXCOORD_0":14
					},
					"indices":15,
					"material":3
				},
				{
					"attributes":{
						"POSITION":16,
						"NORMAL":17,
						"TEXCOORD_0":18
					},
					"indices":19,
					"material":4
				}
			]
		}
	],
	"textures":[
		{
			"sampler":0,
			"source":0
		},
		{
			"sampler":0,
			"source":1
		},
		{
			"sampler":0,
			"source":2
		}
	],
	"images":[
		{
			"mimeType":"image/jpeg",
			"name":"damaged Metal_Normal",
			"uri":"damaged%20Metal_Normal.jpg"
		},
		{
			"mimeType":"image/jpeg",
			"name":"damaged Metal_BaseColor",
			"uri":"damaged%20Metal_BaseColor.jpg"
		},
		{
			"mimeType":"image/png",
			"name":"damaged Metal_Metallic.jpg-damaged Metal_Roughness.jpg",
			"uri":"damaged%20Metal_Metallic_jpg-damaged%20Metal_Roughness_jpg.png"
		}
	],
	"accessors":[
		{
			"bufferView":0,
			"componentType":5126,
			"count":801,
			"max":[
				106.20057678222656,
				34.329036712646484,
				-86.55638122558594
			],
			"min":[
				-105.26799774169922,
				-13.171696662902832,
				-191.4381866455078
			],
			"type":"VEC3"
		},
		{
			"bufferView":1,
			"componentType":5126,
			"count":801,
			"type":"VEC3"
		},
		{
			"bufferView":2,
			"componentType":5126,
			"count":801,
			"type":"VEC2"
		},
		{
			"bufferView":3,
			"componentType":5123,
			"count":3906,
			"type":"SCALAR"
		},
		{
			"bufferView":4,
			"componentType":5126,
			"count":656,
			"max":[
				127.8404312133789,
				34.658504486083984,
				-140.33035278320312
			],
			"min":[
				-127.02179718017578,
				-3.910161018371582,
				-170.8077392578125
			],
			"type":"VEC3"
		},
		{
			"bufferView":5,
			"componentType":5126,
			"count":656,
			"type":"VEC3"
		},
		{
			"bufferView":6,
			"componentType":5126,
			"count":656,
			"type":"VEC2"
		},
		{
			"bufferView":7,
			"componentType":5123,
			"count":2712,
			"type":"SCALAR"
		},
		{
			"bufferView":8,
			"componentType":5126,
			"count":8,
			"max":[
				14.42262077331543,
				34.26610565185547,
				-190.96969604492188
			],
			"min":[
				-13.04220962524414,
				32.43923568725586,
				-198.3993377685547
			],
			"type":"VEC3"
		},
		{
			"bufferView":9,
			"componentType":5126,
			"count":8,
			"type":"VEC3"
		},
		{
			"bufferView":10,
			"componentType":5126,
			"count":8,
			"type":"VEC2"
		},
		{
			"bufferView":11,
			"componentType":5123,
			"count":12,
			"type":"SCALAR"
		},
		{
			"bufferView":12,
			"componentType":5126,
			"count":63,
			"max":[
				25.706764221191406,
				39.511959075927734,
				-173.064697265625
			],
			"min":[
				-27.994403839111328,
				31.640560150146484,
				-213.54885864257812
			],
			"type":"VEC3"
		},
		{
			"bufferView":13,
			"componentType":5126,
			"count":63,
			"type":"VEC3"
		},
		{
			"bufferView":14,
			"componentType":5126,
			"count":63,
			"type":"VEC2"
		},
		{
			"bufferView":15,
			"componentType":5123,
			"count":282,
			"type":"SCALAR"
		},
		{
			"bufferView":16,
			"componentType":5126,
			"count":1794,
			"max":[
				101.86421203613281,
				40.260677337646484,
				0.4131622314453125
			],
			"min":[
				-101.04558563232422,
				-23.193363189697266,
				-220.5916748046875
			],
			"type":"VEC3"
		},
		{
			"bufferView":17,
			"componentType":5126,
			"count":1794,
			"type":"VEC3"
		},
		{
			"bufferView":18,
			"componentType":5126,
			"count":1794,
			"type":"VEC2"
		},
		{
			"bufferView":19,
			"componentType":5123,
			"count":9252,
			"type":"SCALAR"
		}
	],
	"bufferViews":[
		{
			"buffer":0,
			"byteLength":9612,
			"byteOffset":0,
			"target":34962
		},
		{
			"buffer":0,
			"byteLength":9612,
			"byteOffset":9612,
			"target":34962
		},
		{
			"buffer":0,
			"byteLength":6408,
			"byteOffset":19224,
			"target":34962
		},
		{
			"buffer":0,
			"byteLength":7812,
			"byteOffset":25632,
			"target":34963
		},
		{
			"buffer":0,
			"byteLength":7872,
			"byteOffset":33444,
			"target":34962
		},
		{
			"buffer":0,
			"byteLength":7872,
			"byteOffset":41316,
			"target":34962
		},
		{
			"buffer":0,
			"byteLength":5248,
			"byteOffset":49188,
			"target":34962
		},
		{
			"buffer":0,
			"byteLength":5424,
			"byteOffset":54436,
			"target":34963
		},
		{
			"buffer":0,
			"byteLength":96,
			"byteOffset":59860,
			"target":34962
		},
		{
			"buffer":0,
			"byteLength":96,
			"byteOffset":59956,
			"target":34962
		},
		{
			"buffer":0,
			"byteLength":64,
			"byteOffset":60052,
			"target":34962
		},
		{
			"buffer":0,
			"byteLength":24,
			"byteOffset":60116,
			"target":34963
		},
		{
			"buffer":0,
			"byteLength":756,
			"byteOffset":60140,
			"target":34962
		},
		{
			"buffer":0,
			"byteLength":756,
			"byteOffset":60896,
			"target":34962
		},
		{
			"buffer":0,
			"byteLength":504,
			"byteOffset":61652,
			"target":34962
		},
		{
			"buffer":0,
			"byteLength":564,
			"byteOffset":62156,
			"target":34963
		},
		{
			"buffer":0,
			"byteLength":21528,
			"byteOffset":62720,
			"target":34962
		},
		{
			"buffer":0,
			"byteLength":21528,
			"byteOffset":84248,
			"target":34962
		},
		{
			"buffer":0,
			"byteLength":14352,
			"byteOffset":105776,
			"target":34962
		},
		{
			"buffer":0,
			"byteLength":18504,
			"byteOffset":120128,
			"target":34963
		}
	],
	"samplers":[
		{
			"magFilter":9729,
			"minFilter":9987
		}
	],
	"buffers":[
		{
			"byteLength":138632,
			"uri":"Sad.bin"
		}
	]
}
